<svg width="19" height="17" viewBox="0 0 19 17" fill="none" xmlns="http://www.w3.org/2000/svg">
<path d="M18.229 2.41627C17.5511 2.74017 16.8288 2.95487 16.0757 3.05912C16.8504 2.55526 17.4417 1.7635 17.7197 0.809155C16.9974 1.27826 16.1999 1.60961 15.35 1.79452C14.6641 0.999031 13.6866 0.506348 12.6202 0.506348C10.5512 0.506348 8.8855 2.3356 8.8855 4.57812C8.8855 4.90078 8.91057 5.21104 8.97209 5.5064C5.86518 5.34134 3.11602 3.71934 1.26919 1.24847C0.946769 1.85781 0.757643 2.55526 0.757643 3.30608C0.757643 4.71587 1.42414 5.96557 2.41762 6.68908C1.8172 6.67667 1.22818 6.4868 0.72916 6.18771C0.72916 6.20012 0.72916 6.21626 0.72916 6.23239C0.72916 8.21057 2.02456 9.85367 3.72327 10.2322C3.41908 10.3228 3.08754 10.3662 2.74347 10.3662C2.50421 10.3662 2.26268 10.3513 2.03595 10.2967C2.52016 11.9088 3.89417 13.094 5.52795 13.1324C4.25647 14.2158 2.64207 14.8686 0.894361 14.8686C0.587885 14.8686 0.293943 14.8537 0 14.8128C1.65542 15.9756 3.61732 16.6395 5.73302 16.6395C12.6099 16.6395 16.3696 10.4345 16.3696 5.05591C16.3696 4.87596 16.3639 4.70222 16.356 4.52972C17.0977 3.95637 17.7209 3.2403 18.229 2.41627Z" fill="#CECECE"/>
</svg>
