<svg width="19" height="14" viewBox="0 0 19 14" fill="none" xmlns="http://www.w3.org/2000/svg">
<path d="M17.4543 1.31548C16.9598 0.357412 16.4232 0.181188 15.3306 0.114173C14.2391 0.0335074 11.4945 0 9.11678 0C6.73448 0 3.98873 0.0335075 2.89841 0.112932C1.80809 0.181188 1.27033 0.356171 0.771315 1.31548C0.262042 2.2723 0 3.92037 0 6.82186C0 6.82434 0 6.82558 0 6.82558C0 6.82806 0 6.82931 0 6.82931V6.83179C0 9.72087 0.262042 11.3813 0.771315 12.3282C1.27033 13.2863 1.80695 13.46 2.89727 13.5407C3.98873 13.6102 6.73448 13.6512 9.11678 13.6512C11.4945 13.6512 14.2391 13.6102 15.3317 13.542C16.4243 13.4613 16.9609 13.2875 17.4554 12.3295C17.9692 11.3826 18.229 9.72211 18.229 6.83303C18.229 6.83303 18.229 6.82931 18.229 6.82682C18.229 6.82682 18.229 6.82434 18.229 6.8231C18.229 3.92037 17.9692 2.2723 17.4543 1.31548ZM6.83588 10.5486V3.10254L12.5324 6.82558L6.83588 10.5486Z" fill="#CECECE"/>
</svg>
