<svg width="1440" height="630" fill="none" xmlns="http://www.w3.org/2000/svg"><path d="M-36 315.065c49.5 53.167 160.9 112.9 210.5-73.5 7.89-29.651 16.93-55.891 26.722-79.065M264.425 59C301.697 17.465 338.624 2.388 360.5 1.065c31.604-1.46 82.126 21.31 113.352 101.5m28.753 299c-2.061-25.791-2.701-54.526-1.605-86.5 1.089-31.793.53-60.562-1.383-86.565M533.429 532c32.854 69.086 79.586 80.971 114.571 82 19.7.579 49.202-3.83 80-19.949M877.38 263.5c-8.059 38.35-16.571 84.149-26.88 138.065-4.429 23.162-10.184 43.894-16.961 62.435m80.481-323c16.888-31.618 38.447-43.225 71.98-38.435 32.5 4.643 51.23 30.946 62.55 60.435m29.88 139.5c27.31 119.969 89.45 271.453 187.57 309.065 30 11.5 84 24.947 127.5 11.5 15.17-4.688 51.9-20.365 77.5-45.565" stroke="#747474" stroke-dasharray="20 20"/></svg>