<svg width="1440" height="630" fill="none" xmlns="http://www.w3.org/2000/svg"><path d="M-36 315.065c49.5 53.167 160.9 112.9 210.5-73.5 7.89-29.651 16.93-55.891 26.722-79.065 7.015-22.167 29.476-73.9 63.203-103.5C301.697 17.465 338.624 2.388 360.5 1.065c31.604-1.46 82.126 21.31 113.352 101.5C486.482 135 495.57 173.5 499.617 228.5c1.913 26.003 2.472 54.772 1.383 86.565-1.096 31.974-.456 60.709 1.605 86.5 2.418 30.824 11.967 100.065 30.824 130.435 32.854 69.086 79.586 80.971 114.571 82 19.7.579 49.202-3.83 80-19.949 21.359-9.85 72.369-49.651 105.539-130.051 6.777-18.541 12.532-39.273 16.961-62.435 10.309-53.916 18.821-99.715 26.88-138.065 3.72-16.5 8.333-69.5 36.64-122.5 16.888-31.618 38.447-43.225 71.98-38.435 32.5 4.643 51.23 30.946 62.55 60.435s29.88 139.5 29.88 139.5c27.31 119.969 89.45 271.453 187.57 309.065 30 11.5 84 24.947 127.5 11.5 15.17-4.688 51.9-20.365 77.5-45.565" stroke="#747474" stroke-dasharray="20 20"/></svg>