<svg width="1440" height="630" viewBox="0 0 1440 630" fill="none" xmlns="http://www.w3.org/2000/svg">
<path d="M-36 315.065C13.5 368.232 124.9 427.965 174.5 241.565C182.39 211.914 191.43 185.674 201.222 162.5M264.425 59C301.697 17.4649 338.624 2.38826 360.5 1.06512C392.104 -0.395147 442.626 22.3754 473.852 102.565M502.605 401.565C500.544 375.774 499.904 347.039 501 315.065C502.089 283.272 501.53 254.503 499.617 228.5M533.429 532C566.283 601.086 613.015 612.971 648 614C667.7 614.579 697.202 610.17 728 594.051M877.38 263.5C869.321 301.85 860.809 347.649 850.5 401.565C846.071 424.727 840.316 445.459 833.539 464M914.02 141C930.908 109.382 952.467 97.7748 986 102.565C1018.5 107.208 1037.23 133.511 1048.55 163M1078.43 302.5C1105.74 422.469 1167.88 573.953 1266 611.565C1296 623.065 1350 636.512 1393.5 623.065C1408.67 618.377 1445.4 602.7 1471 577.5" stroke="#747474" stroke-dasharray="20 20"/>
</svg>
