<svg width="1440" height="630" viewBox="0 0 1440 630" fill="none" xmlns="http://www.w3.org/2000/svg">
<path d="M-36 315.065C13.5 368.232 124.9 427.965 174.5 241.565C182.39 211.914 191.43 185.674 201.222 162.5C208.237 140.333 230.698 88.6 264.425 59C301.697 17.4649 338.624 2.38826 360.5 1.06512C392.104 -0.395147 442.626 22.3754 473.852 102.565C486.482 135 495.57 173.5 499.617 228.5C501.53 254.503 502.089 283.272 501 315.065C499.904 347.039 500.544 375.774 502.605 401.565C505.023 432.389 514.572 501.63 533.429 532C566.283 601.086 613.015 612.971 648 614C667.7 614.579 697.202 610.17 728 594.051C749.359 584.201 800.369 544.4 833.539 464C840.316 445.459 846.071 424.727 850.5 401.565C860.809 347.649 869.321 301.85 877.38 263.5C881.1 247 885.713 194 914.02 141C930.908 109.382 952.467 97.7748 986 102.565C1018.5 107.208 1037.23 133.511 1048.55 163C1059.87 192.489 1078.43 302.5 1078.43 302.5C1105.74 422.469 1167.88 573.953 1266 611.565C1296 623.065 1350 636.512 1393.5 623.065C1408.67 618.377 1445.4 602.7 1471 577.5" stroke="#747474" stroke-dasharray="20 20"/>
</svg>
