<svg width="24" height="17" viewBox="0 0 24 17" fill="none" xmlns="http://www.w3.org/2000/svg">
<path d="M15.9094 8.3727L24.0003 13.4876V3.04175L15.9094 8.3727Z" fill="#929292"/>
<path d="M0 3.04175V13.4876L8.09092 8.3727L0 3.04175Z" fill="#929292"/>
<path d="M22.5002 0H1.5004C0.751903 0 0.157909 0.557995 0.0454102 1.27649L12.0003 9.15291L23.9552 1.27649C23.8427 0.557995 23.2487 0 22.5002 0Z" fill="#929292"/>
<path d="M14.5345 9.27884L12.412 10.6768C12.286 10.7593 12.1435 10.7998 11.9995 10.7998C11.8555 10.7998 11.713 10.7593 11.587 10.6768L9.46451 9.27734L0.0476074 15.2338C0.163106 15.9463 0.754101 16.4998 1.49959 16.4998H22.4994C23.2449 16.4998 23.8359 15.9463 23.9514 15.2338L14.5345 9.27884Z" fill="#929292"/>
</svg>
