<svg width="23" height="24" viewBox="0 0 23 24" fill="none" xmlns="http://www.w3.org/2000/svg">
<path d="M22.3969 16.9152L19.1804 13.6987C18.0317 12.55 16.0788 13.0095 15.6193 14.5028C15.2747 15.5368 14.1259 16.1111 13.0921 15.8813C10.7946 15.307 7.693 12.3202 7.11863 9.90788C6.77401 8.87397 7.46326 7.72523 8.49712 7.38065C9.99048 6.92116 10.45 4.9683 9.30124 3.81956L6.08477 0.603088C5.16578 -0.201029 3.78729 -0.201029 2.98317 0.603088L0.800565 2.78569C-1.38204 5.08317 1.03031 11.1715 6.42939 16.5706C11.8285 21.9697 17.9168 24.4969 20.2143 22.1994L22.3969 20.0168C23.201 19.0978 23.201 17.7193 22.3969 16.9152Z" fill="#929292"/>
</svg>
