<svg width="24" height="21" viewBox="0 0 24 21" fill="none" xmlns="http://www.w3.org/2000/svg">
<path d="M23.4738 2.45944C22.6009 2.87654 21.6707 3.15301 20.701 3.28725C21.6986 2.63843 22.4601 1.61885 22.818 0.389931C21.8879 0.994005 20.8609 1.42069 19.7664 1.65881C18.8832 0.634437 17.6244 0 16.2512 0C13.5869 0 11.442 2.35557 11.442 5.2433C11.442 5.6588 11.4743 6.05832 11.5535 6.43866C7.55271 6.22611 4.01256 4.13743 1.63437 0.955651C1.21917 1.74031 0.975631 2.63843 0.975631 3.60527C0.975631 5.42068 1.83389 7.02995 3.11322 7.96163C2.34005 7.94565 1.58155 7.70114 0.938953 7.316C0.938953 7.33198 0.938953 7.35276 0.938953 7.37353C0.938953 9.92087 2.60706 12.0367 4.79453 12.5241C4.40281 12.6408 3.97588 12.6967 3.53281 12.6967C3.22472 12.6967 2.91369 12.6776 2.62173 12.6072C3.24526 14.6831 5.0146 16.2093 7.11844 16.2589C5.48114 17.654 3.40224 18.4946 1.15168 18.4946C0.757031 18.4946 0.378516 18.4754 0 18.4226C2.13172 19.92 4.65809 20.775 7.38252 20.775C16.238 20.775 21.0795 12.7846 21.0795 5.85856C21.0795 5.62683 21.0722 5.4031 21.0619 5.18097C22.017 4.44266 22.8195 3.52057 23.4738 2.45944Z" fill="#929292"/>
</svg>
