<svg width="24" height="18" viewBox="0 0 24 18" fill="none" xmlns="http://www.w3.org/2000/svg">
<path d="M22.4762 1.69396C21.8395 0.460246 21.1485 0.233319 19.7415 0.147023C18.336 0.0431481 14.8017 0 11.7399 0C8.67211 0 5.13637 0.0431482 3.73234 0.145425C2.32831 0.23332 1.63583 0.458648 0.993237 1.69396C0.337436 2.92608 0 5.04833 0 8.78464C0 8.78783 0 8.78943 0 8.78943C0 8.79263 0 8.79422 0 8.79422V8.79742C0 12.5177 0.337436 14.656 0.993237 15.8753C1.63583 17.109 2.32684 17.3328 3.73087 17.4366C5.13637 17.5261 8.67211 17.5789 11.7399 17.5789C14.8017 17.5789 18.336 17.5261 19.743 17.4382C21.1499 17.3344 21.8409 17.1106 22.4777 15.8769C23.1393 14.6576 23.4738 12.5193 23.4738 8.79902C23.4738 8.79902 23.4738 8.79423 23.4738 8.79103C23.4738 8.79103 23.4738 8.78783 23.4738 8.78623C23.4738 5.04833 23.1393 2.92608 22.4762 1.69396ZM8.80269 13.5837V3.9952L16.1383 8.78943L8.80269 13.5837Z" fill="#929292"/>
</svg>
