<svg width="19" height="17" fill="none" xmlns="http://www.w3.org/2000/svg"><path d="M18.229 2.416a7.3 7.3 0 01-2.153.643A4.005 4.005 0 0017.72.81c-.723.47-1.52.8-2.37.986-.686-.797-1.663-1.29-2.73-1.29-2.069 0-3.734 1.83-3.734 4.072 0 .323.025.633.086.928C5.865 5.341 3.116 3.72 1.27 1.248a4.381 4.381 0 00-.511 2.058c0 1.41.666 2.66 1.66 3.383A3.462 3.462 0 01.73 6.188v.044c0 1.979 1.296 3.622 2.994 4-.304.09-.635.134-.98.134a3.02 3.02 0 01-.707-.07c.484 1.613 1.858 2.798 3.492 2.836C4.256 14.216 2.642 14.87.894 14.87c-.306 0-.6-.015-.894-.056a9.906 9.906 0 005.733 1.827c6.877 0 10.637-6.206 10.637-11.584 0-.18-.006-.354-.014-.526a7.857 7.857 0 001.873-2.114z" fill="#CECECE"/></svg>