<svg width="19" height="14" fill="none" xmlns="http://www.w3.org/2000/svg"><path d="M17.454 1.315c-.494-.958-1.03-1.134-2.123-1.2C14.239.033 11.495 0 9.117 0 6.734 0 3.989.034 2.898.113 1.808.18 1.27.356.771 1.315.262 2.272 0 3.92 0 6.822v.01c0 2.889.262 4.55.771 5.496.5.958 1.036 1.132 2.126 1.213 1.092.07 3.837.11 6.22.11 2.377 0 5.122-.04 6.215-.109 1.092-.08 1.629-.255 2.123-1.213.514-.946.774-2.607.774-5.496v-.01c0-2.903-.26-4.55-.775-5.508zM6.836 10.55V3.103l5.696 3.723-5.696 3.723z" fill="#CECECE"/></svg>