<svg width="125" height="91" fill="none" xmlns="http://www.w3.org/2000/svg"><path d="M116.605 9.18C110.957 3.087 104.101 0 96.229 0c-7.075 0-13.072 2.418-17.827 7.187-4.725 4.739-7.12 10.624-7.12 17.494 0 6.492 2.42 12.277 7.192 17.194 4.21 4.338 9.513 7.098 15.792 8.222-1.098 7.99-8.457 15.223-21.916 21.524l-2.423 1.135 9.936 17.609 2.243-1.092C110.57 75.425 125 55.853 125 31.103c0-8.54-2.824-15.915-8.395-21.924zM82.001 83.734l-4.979-8.821C91.994 67.384 99.58 58.33 99.58 47.982v-2.216l-2.294-.25c-6.178-.67-11.094-2.968-15.029-7.023-3.906-4.025-5.805-8.543-5.805-13.812 0-5.626 1.86-10.226 5.686-14.063C85.93 6.812 90.54 4.962 96.23 4.962c6.422 0 11.823 2.458 16.514 7.516 4.769 5.143 7.087 11.236 7.087 18.624 0 11.344-3.328 21.586-9.891 30.44C103.678 69.99 94.286 77.45 82 83.735zM46.542 9.168C40.832 3.085 33.947 0 26.082 0 19 0 13.028 2.423 8.335 7.2c-4.652 4.737-7.011 10.618-7.011 17.48 0 6.492 2.42 12.277 7.192 17.195 4.201 4.329 9.441 7.086 15.603 8.215-1.085 7.996-8.383 15.232-21.734 21.535L0 72.75l9.69 17.622 2.265-1.098c28.59-13.847 43.088-33.42 43.088-58.173 0-8.545-2.86-15.925-8.5-21.934zM11.88 83.726L7.037 74.92C21.899 67.386 29.43 58.33 29.43 47.98v-2.21l-2.288-.254c-6.051-.67-10.907-2.968-14.843-7.024-3.906-4.026-5.805-8.543-5.805-13.812 0-5.634 1.833-10.238 5.603-14.077 3.73-3.796 8.304-5.642 13.984-5.642 6.429 0 11.866 2.462 16.62 7.527 4.827 5.141 7.173 11.23 7.173 18.613 0 11.342-3.343 21.582-9.935 30.436-6.29 8.446-15.722 15.903-28.06 22.188z" fill="#242424"/></svg>