<svg width="125" height="91" fill="none" xmlns="http://www.w3.org/2000/svg"><path d="M8.395 81.193c5.649 6.091 12.504 9.18 20.376 9.18 7.075 0 13.072-2.419 17.827-7.188 4.725-4.738 7.12-10.624 7.12-17.493 0-6.492-2.42-12.277-7.192-17.194-4.21-4.339-9.513-7.098-15.792-8.223 1.098-7.99 8.457-15.222 21.916-21.523l2.424-1.135L45.137.007 42.894 1.1C14.43 14.948 0 34.52 0 59.27c0 8.54 2.824 15.916 8.395 21.924zM42.999 6.638l4.979 8.82C33.006 22.99 25.42 32.042 25.42 42.392v2.216l2.294.25c6.178.67 11.094 2.968 15.029 7.023 3.906 4.025 5.805 8.543 5.805 13.812 0 5.626-1.86 10.226-5.685 14.063-3.795 3.806-8.405 5.656-14.093 5.656-6.423 0-11.825-2.459-16.515-7.516C7.487 72.75 5.17 66.659 5.17 59.27c0-11.344 3.328-21.585 9.89-30.44C21.323 20.383 30.715 12.925 43 6.639zm35.459 74.566c5.71 6.084 12.595 9.169 20.46 9.169 7.082 0 13.053-2.423 17.746-7.2 4.652-4.737 7.011-10.619 7.011-17.481 0-6.492-2.42-12.277-7.192-17.194-4.201-4.33-9.441-7.086-15.603-8.216 1.085-7.996 8.382-15.232 21.734-21.534L125 17.62 115.311 0l-2.266 1.097c-28.59 13.848-43.088 33.42-43.088 58.173 0 8.546 2.86 15.926 8.5 21.934zM113.12 6.646l4.842 8.808C103.101 22.987 95.57 32.04 95.57 42.39v2.211l2.288.254c6.051.67 10.907 2.968 14.843 7.024 3.906 4.025 5.805 8.543 5.805 13.812 0 5.633-1.833 10.238-5.603 14.076-3.729 3.797-8.304 5.643-13.984 5.643-6.428 0-11.866-2.462-16.62-7.528-4.827-5.14-7.173-11.229-7.173-18.613 0-11.342 3.343-21.582 9.935-30.435 6.29-8.446 15.722-15.903 28.06-22.189z" fill="#242424"/></svg>