<svg width="24" height="21" fill="none" xmlns="http://www.w3.org/2000/svg"><path d="M23.474 2.46a9.4 9.4 0 01-2.773.827c.998-.649 1.76-1.668 2.117-2.897a9.154 9.154 0 01-3.052 1.269C18.883.634 17.624 0 16.251 0c-2.664 0-4.809 2.356-4.809 5.243 0 .416.032.815.111 1.196-4-.213-7.54-2.302-9.919-5.483a5.642 5.642 0 00-.658 2.65c0 1.815.858 3.424 2.137 4.356A4.458 4.458 0 01.94 7.316v.058c0 2.547 1.668 4.663 3.856 5.15a4.431 4.431 0 01-1.262.173c-.308 0-.62-.02-.911-.09.623 2.076 2.393 3.602 4.496 3.652-1.637 1.395-3.716 2.236-5.966 2.236-.395 0-.773-.02-1.152-.072 2.132 1.497 4.658 2.352 7.383 2.352 8.855 0 13.697-7.99 13.697-14.916 0-.232-.008-.456-.018-.678.955-.738 1.758-1.66 2.412-2.722z" fill="#929292"/></svg>