<svg width="24" height="18" fill="none" xmlns="http://www.w3.org/2000/svg"><path d="M22.476 1.694C21.84.46 21.148.234 19.741.147 18.336.043 14.801 0 11.74 0 8.672 0 5.136.043 3.732.145 2.328.233 1.636.46.993 1.694.337 2.926 0 5.048 0 8.784v.014c0 3.72.337 5.859.993 7.078.643 1.234 1.334 1.458 2.738 1.562 1.405.09 4.941.142 8.009.142 3.062 0 6.596-.053 8.003-.14 1.407-.105 2.098-.328 2.735-1.562.661-1.22.996-3.358.996-7.078v-.013c0-3.738-.335-5.86-.998-7.092zM8.803 13.584V3.995l7.335 4.794-7.335 4.795z" fill="#929292"/></svg>