<svg width="125" height="91" viewBox="0 0 125 91" fill="none" xmlns="http://www.w3.org/2000/svg">
<path d="M116.605 9.17933C110.957 3.08845 104.101 0 96.2292 0C89.1545 0 83.157 2.41822 78.4019 7.18716C73.677 11.9256 71.2812 17.8112 71.2812 24.6808C71.2812 31.1727 73.7012 36.9575 78.4739 41.875C82.6838 46.2133 87.9873 48.9727 94.2656 50.0973C93.1677 58.0873 85.8091 65.3195 72.3501 71.621L69.9265 72.756L79.8633 90.3647L82.1064 89.2734C110.569 75.425 125 55.8535 125 31.1026C125 22.5635 122.176 15.1877 116.605 9.17933ZM82.0007 83.7349L77.0222 74.9136C91.9937 67.3834 99.5789 58.3313 99.5789 47.9816V45.7657L97.2852 45.5163C91.1072 44.8452 86.1912 42.5479 82.2563 38.493C78.3499 34.4676 76.4507 29.9499 76.4507 24.6808C76.4507 19.0547 78.3108 14.4549 82.1365 10.6177C85.9312 6.81173 90.5413 4.96157 96.2295 4.96157C102.652 4.96157 108.053 7.42033 112.744 12.478C117.513 17.6214 119.831 23.7135 119.831 31.1024C119.831 42.4464 116.503 52.6878 109.94 61.5421C103.678 69.9902 94.2859 77.4488 82.0007 83.7349Z" fill="#242424"/>
<path d="M46.5422 9.16807C40.8311 3.08469 33.947 0 26.0811 0C18.9995 0 13.0291 2.42266 8.33643 7.2005C3.68408 11.9371 1.32495 17.8182 1.32495 24.6808C1.32495 31.1724 3.74487 36.9572 8.51709 41.875C12.7183 46.2038 17.958 48.9606 24.1196 50.0904C23.0349 58.0865 15.7375 65.3222 2.38647 71.6249L-0.000244141 72.7512L9.68921 90.3726L11.9546 89.2754C40.5459 75.4276 55.043 55.8553 55.043 31.1023C55.0427 22.5567 52.1824 15.1769 46.5422 9.16807ZM11.8794 83.7263L7.03662 74.9186C21.8994 67.3856 29.4304 58.3314 29.4304 47.9813L29.4304 45.7703L27.1418 45.5167C21.0906 44.8465 16.2351 42.549 12.2991 38.4927C8.39258 34.4675 6.4939 29.9496 6.4939 24.6808C6.4939 19.0474 8.3269 14.4427 12.0972 10.6044C15.8264 6.8075 20.4009 4.96156 26.0811 4.96156C32.5095 4.96156 37.9468 7.42383 42.7019 12.4894C47.5278 17.6301 49.8738 23.7186 49.8738 31.1023C49.8738 42.4444 46.5315 52.6844 39.939 61.5377C33.6497 69.9836 24.217 77.4409 11.8794 83.7263Z" fill="#242424"/>
</svg>
