<svg width="125" height="91" viewBox="0 0 125 91" fill="none" xmlns="http://www.w3.org/2000/svg">
<path d="M8.39478 81.1932C14.0435 87.2841 20.8989 90.3726 28.7708 90.3726C35.8455 90.3726 41.843 87.9543 46.5981 83.1854C51.323 78.4469 53.7188 72.5613 53.7188 65.6917C53.7188 59.1999 51.2988 53.415 46.5261 48.4975C42.3162 44.1593 37.0127 41.3999 30.7344 40.2752C31.8323 32.2852 39.1909 25.0531 52.6499 18.7515L55.0735 17.6166L45.1367 0.0078125L42.8936 1.09916C14.4314 14.9476 0 34.519 0 59.2699C0 67.809 2.82422 75.1848 8.39478 81.1932ZM42.9993 6.6377L47.9778 15.4589C33.0063 22.9892 25.4211 32.0413 25.4211 42.3909V44.6069L27.7148 44.8562C33.8928 45.5274 38.8088 47.8247 42.7437 51.8796C46.6501 55.905 48.5493 60.4227 48.5493 65.6917C48.5493 71.3179 46.6892 75.9176 42.8635 79.7548C39.0688 83.5608 34.4587 85.411 28.7705 85.411C22.3484 85.411 16.9465 82.9522 12.2563 77.8946C7.4873 72.7511 5.16895 66.6591 5.16895 59.2702C5.16895 47.9262 8.49683 37.6848 15.0596 28.8305C21.3218 20.3823 30.7141 12.9238 42.9993 6.6377Z" fill="#242424"/>
<path d="M78.4578 81.2045C84.1689 87.2879 91.053 90.3726 98.9189 90.3726C106 90.3726 111.971 87.9499 116.664 83.1721C121.316 78.4355 123.675 72.5543 123.675 65.6918C123.675 59.2001 121.255 53.4153 116.483 48.4976C112.282 44.1688 107.042 41.4119 100.88 40.2821C101.965 32.286 109.262 25.0504 122.614 18.7477L125 17.6214L115.311 0L113.045 1.09721C84.4541 14.9449 69.957 34.5172 69.957 59.2702C69.9573 67.8159 72.8176 75.1956 78.4578 81.2045ZM113.121 6.64627L117.963 15.4539C103.101 22.987 95.5696 32.0411 95.5696 42.3912V44.6023L97.8582 44.8559C103.909 45.5261 108.765 47.8236 112.701 51.8799C116.607 55.905 118.506 60.423 118.506 65.6918C118.506 71.3252 116.673 75.9298 112.903 79.7682C109.174 83.5651 104.599 85.411 98.9189 85.411C92.4905 85.411 87.0532 82.9487 82.2981 77.8831C77.4722 72.7425 75.1262 66.654 75.1262 59.2702C75.1262 47.9281 78.4685 37.6882 85.061 28.8348C91.3503 20.389 100.783 12.9317 113.121 6.64627Z" fill="#242424"/>
</svg>
